<svg version="1.1" xmlns="http://www.w3.org/2000/svg" viewBox="0 0 1306.178466796875 679.1061401367188" width="1306.178466796875" height="679.1061401367188">
  <!-- svg-source:excalidraw -->
  
  <defs>
    <style>
      @font-face {
        font-family: "Virgil";
        src: url("https://excalidraw.com/Virgil.woff2");
      }
      @font-face {
        font-family: "Cascadia";
        src: url("https://excalidraw.com/Cascadia.woff2");
      }
    </style>
  </defs>
  <rect x="0" y="0" width="1306.178466796875" height="679.1061401367188" fill="#ffffff"></rect><g transform="translate(266.09661865234375 120.22561645507812) rotate(0 65 12.5)"><text x="0" y="18" font-family="Virgil, Segoe UI Emoji" font-size="20px" fill="#000000" text-anchor="start" style="white-space: pre;" direction="ltr">ddprof MyApp</text></g><g stroke-linecap="round"><g transform="translate(412.5078125 134.00869750976562) rotate(0 53.61500617881313 -0.4970955768413887)"><path d="M-0.37 -0.99 C17.23 -1.16, 87.49 -0.48, 105.41 -0.3 M1.64 1.11 C19.61 0.52, 90.08 -1.63, 107.6 -2.1" stroke="#000000" stroke-width="1" fill="none"></path></g><g transform="translate(412.5078125 134.00869750976562) rotate(0 53.61500617881313 -0.4970955768413887)"><path d="M78.07 7.32 C88.66 7.09, 97.3 1.93, 106.41 -1.71 M78.96 9.05 C88.69 6.74, 95.49 2.31, 107.01 -2.37" stroke="#000000" stroke-width="1" fill="none"></path></g><g transform="translate(412.5078125 134.00869750976562) rotate(0 53.61500617881313 -0.4970955768413887)"><path d="M77.48 -13.19 C88.36 -7.55, 97.17 -6.84, 106.41 -1.71 M78.36 -11.46 C88.43 -7.74, 95.41 -6.14, 107.01 -2.37" stroke="#000000" stroke-width="1" fill="none"></path></g></g><g stroke-linecap="round"><g transform="translate(523.44970703125 65.18572998046875) rotate(0 -2.1258210616185806 132.0882960856613)"><path d="M0.21 0.16 C-0.55 44.37, -3.95 221.06, -4.47 264.97 M-1.13 -0.8 C-1.54 43.09, -1.92 218.99, -2.3 263.22" stroke="#000000" stroke-width="1" fill="none"></path></g></g><g stroke-linecap="round" transform="translate(424.41094970703125 10) rotate(0 97.85018920898438 27.721588134765625)"><path d="M-1.61 -1.56 C54.23 -0.01, 108.9 -0.41, 194.67 -0.79 M-0.63 -0.49 C61.36 -0.35, 121.39 -0.16, 195.87 -0.39 M195.67 0.66 C194.9 11.6, 197.44 21.7, 193.99 56.51 M196.32 -0.92 C195.21 14.06, 196.25 27, 196.14 56.27 M194.98 54.53 C142.6 57.08, 87.38 58.01, 0.63 54.18 M195.88 55.96 C153.66 54.26, 113.63 53.53, 0.02 54.8 M-0.43 55.31 C-0.49 45.55, 1.64 32.52, 0.82 0.34 M0.73 55.62 C-0.75 33.63, 0.11 11.25, 0.48 0.68" stroke="#000000" stroke-width="1" fill="none"></path></g><g transform="translate(486.631591796875 26.71356201171875) rotate(0 31 12.5)"><text x="0" y="18" font-family="Virgil, Segoe UI Emoji" font-size="20px" fill="#000000" text-anchor="start" style="white-space: pre;" direction="ltr">ddprof</text></g><g stroke-linecap="round"><g transform="translate(519.689453125 189.59832763671875) rotate(0 86.61136950876562 0.6243077944198205)"><path d="M0.15 -0.89 C29.35 -0.63, 145.37 0.61, 174.46 0.73 M-1.24 1.26 C27.89 1.77, 144.35 2.23, 173.57 2.12" stroke="#000000" stroke-width="1" fill="none"></path></g><g transform="translate(519.689453125 189.59832763671875) rotate(0 86.61136950876562 0.6243077944198205)"><path d="M143.89 12.53 C151.59 10.44, 156.77 6.91, 171.83 2.09 M145.11 11.64 C155.73 7.37, 167.09 3.08, 173.78 2.56" stroke="#000000" stroke-width="1" fill="none"></path></g><g transform="translate(519.689453125 189.59832763671875) rotate(0 86.61136950876562 0.6243077944198205)"><path d="M143.91 -7.99 C151.47 -5.25, 156.64 -3.95, 171.83 2.09 M145.13 -8.88 C155.88 -4.95, 167.23 -1.05, 173.78 2.56" stroke="#000000" stroke-width="1" fill="none"></path></g></g><g transform="translate(585.1072998046875 160.85592651367188) rotate(0 19.5 12.5)"><text x="0" y="18" font-family="Virgil, Segoe UI Emoji" font-size="20px" fill="#000000" text-anchor="start" style="white-space: pre;" direction="ltr">fork</text></g><g stroke-linecap="round" transform="translate(620.9273681640625 107.79190063476562) rotate(0 70.85882568359375 23.83282470703125)"><path d="M0.47 0.42 C40.56 -1.17, 80.81 -0.17, 142.03 -0.7 M0.82 -0.41 C51.18 0.61, 102.31 0.81, 142.53 0.84 M140.74 0.05 C140.87 11.37, 143.91 23.35, 140.9 48.63 M141 -0.34 C141.71 17.2, 142.09 33.62, 141.32 48.02 M143.43 45.82 C98.15 49.43, 52.11 47.28, 0.38 48.27 M140.85 46.76 C112.64 48.01, 82.57 47.93, 0.89 48.64 M0.87 48.98 C1.31 32.16, -0.63 12.75, -1.85 1.44 M-0.82 47.8 C0.18 37.11, 1.12 26.26, 0.69 -0.83" stroke="#000000" stroke-width="1" fill="none"></path></g><g transform="translate(673.4228515625 122.10516357421875) rotate(0 20.5 12.5)"><text x="0" y="18" font-family="Virgil, Segoe UI Emoji" font-size="20px" fill="#000000" text-anchor="start" style="white-space: pre;" direction="ltr">child</text></g><g stroke-linecap="round"><g transform="translate(693.0953369140625 157.85150146484375) rotate(0 0.14884051808178356 63.11874030921601)"><path d="M-0.89 -0.67 C-0.7 20.65, 0.76 105.64, 1.19 126.91 M0.84 1.59 C0.91 22.63, 0.39 103.81, 0.49 124.95" stroke="#000000" stroke-width="1" fill="none"></path></g></g><g stroke-linecap="round"><g transform="translate(694.3232458699495 242.8460469499044) rotate(0 71.04582877103235 -0.6347139940747581)"><path d="M-0.38 0.64 C23.21 0.81, 118.61 0.03, 142.47 0.04 M1.63 -0.06 C25.03 -0.2, 118.4 -1.76, 141.89 -1.93" stroke="#000000" stroke-width="1" fill="none"></path></g><g transform="translate(694.3232458699495 242.8460469499044) rotate(0 71.04582877103235 -0.6347139940747581)"><path d="M114.9 9.86 C125.06 6.43, 136.92 0.19, 143.33 -0.86 M113.55 9.13 C125.22 4.63, 134.98 -0.2, 141.57 -1.11" stroke="#000000" stroke-width="1" fill="none"></path></g><g transform="translate(694.3232458699495 242.8460469499044) rotate(0 71.04582877103235 -0.6347139940747581)"><path d="M114.65 -10.66 C124.74 -6.27, 136.7 -4.68, 143.33 -0.86 M113.29 -11.39 C124.95 -8.12, 134.8 -5.18, 141.57 -1.11" stroke="#000000" stroke-width="1" fill="none"></path></g></g><g stroke-linecap="round" transform="translate(775.107666015625 150.35647583007812) rotate(0 61.5638427734375 29.09466552734375)"><path d="M1.73 0.18 C47.52 2.18, 96.11 -0.14, 124.34 -0.64 M0.21 0.78 C36.64 1.05, 72.46 -0.12, 123.19 0.33 M122.39 0.07 C121.73 24.93, 121.54 46.66, 125.03 57.4 M123.47 -0.66 C123.11 14.52, 124.23 28.23, 122.9 58.45 M124.61 59.65 C82.7 58.29, 47.38 60.2, 1.17 59.19 M123 57.7 C73.92 59.25, 26.44 58.36, 0.37 58.78 M0.7 57.43 C1.71 41.36, 0.88 26.68, -0.32 0.28 M-0.99 57.32 C-0.33 44.79, -0.66 33.92, 0.95 -0.98" stroke="#000000" stroke-width="1" fill="none"></path></g><g stroke-linecap="round"><g transform="translate(835.651611328125 211.22567749023438) rotate(0 -0.062379392157026814 58.34006237286147)"><path d="M0.52 0.21 C0.67 19.65, 0.27 98.04, 0.28 117.4 M-0.67 -0.72 C-0.59 18.32, -0.6 96.03, -0.45 115.77" stroke="#000000" stroke-width="1" fill="none"></path></g></g><g stroke-linecap="round"><g transform="translate(692.705810546875 270.648193359375) rotate(0 -86.38516694143402 0.2224015278741831)"><path d="M-0.33 0.94 C-29.32 0.67, -144.32 -0.46, -173.26 -0.49 M1.7 0.38 C-27.56 0.74, -145.57 0.18, -174.47 0.47" stroke="#000000" stroke-width="1" fill="none"></path></g><g transform="translate(692.705810546875 270.648193359375) rotate(0 -86.38516694143402 0.2224015278741831)"><path d="M-144.73 -10.65 C-158.13 -8.2, -166.22 -0.78, -173.71 -0.28 M-147.14 -8.86 C-157.41 -5.47, -167.13 -1.11, -174.61 0.67" stroke="#000000" stroke-width="1" fill="none"></path></g><g transform="translate(692.705810546875 270.648193359375) rotate(0 -86.38516694143402 0.2224015278741831)"><path d="M-144.7 9.87 C-158.3 4.96, -166.4 5.02, -173.71 -0.28 M-147.1 11.66 C-157.34 7.13, -167.07 3.56, -174.61 0.67" stroke="#000000" stroke-width="1" fill="none"></path></g></g><g transform="translate(593.7183837890625 245.05615234375) rotate(0 19 12.5)"><text x="0" y="18" font-family="Virgil, Segoe UI Emoji" font-size="20px" fill="#000000" text-anchor="start" style="white-space: pre;" direction="ltr">exit</text></g><g stroke-linecap="round"><g transform="translate(1064.4813741298653 292.60265204245377) rotate(0 -111.71169162980641 -3.6141602023046744)"><path d="M0.75 -1.05 C-36.74 -2.23, -186.76 -5.26, -224.18 -6.18" stroke="#5f3dc4" stroke-width="1.5" fill="none" stroke-dasharray="8 9"></path></g><g transform="translate(1064.4813741298653 292.60265204245377) rotate(0 -111.71169162980641 -3.6141602023046744)"><path d="M-197.51 -16.21 C-205.28 -11.85, -216.28 -8.47, -225.94 -4.33" stroke="#5f3dc4" stroke-width="1.5" fill="none"></path></g><g transform="translate(1064.4813741298653 292.60265204245377) rotate(0 -111.71169162980641 -3.6141602023046744)"><path d="M-197.97 4.3 C-205.73 1.21, -216.57 -2.86, -225.94 -4.33" stroke="#5f3dc4" stroke-width="1.5" fill="none"></path></g></g><g stroke-linecap="round" transform="translate(1067.00537109375 229.68649291992188) rotate(0 114.5865478515625 59.71318054199219)"><path d="M1.37 -0.79 C54.75 -1.23, 110.98 -1.38, 228.72 -0.04 M230.74 -1.5 C229.35 24.89, 229.76 51.85, 228.43 121.26 M230.44 118.84 C163.49 119, 99.4 118.93, -1.24 120.97 M0.08 118.39 C-0.74 92.32, 1.09 62.39, 0.98 0.22" stroke="#5f3dc4" stroke-width="1.5" fill="none" stroke-dasharray="8 9"></path></g><g transform="translate(1082.9918212890625 234.496337890625) rotate(0 99.5 50)"><text x="0" y="18" font-family="Virgil, Segoe UI Emoji" font-size="20px" fill="#5f3dc4" text-anchor="start" style="white-space: pre;" direction="ltr">Orphan process: </text><text x="0" y="43" font-family="Virgil, Segoe UI Emoji" font-size="20px" fill="#5f3dc4" text-anchor="start" style="white-space: pre;" direction="ltr">Lifetime no longer </text><text x="0" y="68" font-family="Virgil, Segoe UI Emoji" font-size="20px" fill="#5f3dc4" text-anchor="start" style="white-space: pre;" direction="ltr">linked to the parent</text><text x="0" y="93" font-family="Virgil, Segoe UI Emoji" font-size="20px" fill="#5f3dc4" text-anchor="start" style="white-space: pre;" direction="ltr">process</text></g><g transform="translate(725.296142578125 217.1689453125) rotate(0 19.5 12.5)"><text x="0" y="18" font-family="Virgil, Segoe UI Emoji" font-size="20px" fill="#000000" text-anchor="start" style="white-space: pre;" direction="ltr">fork</text></g><g stroke-linecap="round" transform="translate(435.793212890625 360.4063720703125) rotate(0 83.18072509765625 26.868804931640625)"><path d="M1.69 -0.79 C56.43 -1.26, 115.42 2.34, 165.15 0 M0.11 -0.48 C57.43 0.58, 115.19 0.08, 167.04 0.31 M166.95 1.26 C166.47 10.95, 166.56 23.79, 167.32 54.34 M166.98 -0.39 C166.85 10.99, 165.12 24.59, 165.49 53.88 M165.11 55.31 C112.77 54.56, 60.24 53.15, 1.24 55.7 M167.12 52.81 C124.48 52.5, 82.62 53.49, -0.65 53.71 M1.64 52.77 C0.1 33.8, -1.94 14.45, 0.06 -0.45 M-0.24 54.5 C0.22 34.58, -0.79 15.27, 0.77 -0.57" stroke="#000000" stroke-width="1" fill="none"></path></g><g transform="translate(489.97393798828125 374.7751770019531) rotate(0 29 12.5)"><text x="29" y="18" font-family="Virgil, Segoe UI Emoji" font-size="20px" fill="#000000" text-anchor="middle" style="white-space: pre;" direction="ltr">MyApp</text></g><g stroke-linecap="round" transform="translate(679.8927659848712 459.35735222164146) rotate(269.24297782159806 158.38915531998202 25.8909912109375)"><path d="M-0.57 -0.4 C68.62 -1.01, 140.84 -1.79, 316.47 -0.27 M-0.59 0.21 C108.61 1.15, 217.07 1.16, 316.57 0.7 M318.41 -1.13 C316.96 19.01, 318.42 33.11, 315.11 50.93 M317.28 0.27 C315.96 19.45, 317.42 40.33, 316.16 51.88 M316.44 52.87 C214.9 50.53, 113.24 52.81, 0.8 52.07 M317.42 51.92 C231.52 49.82, 147.44 50.56, 0.7 51.88 M-1.3 53.48 C1.14 37.85, 0.41 21.18, -1.74 0.77 M0.02 52.39 C0.48 40.93, -0.41 30.08, -0.33 -0.81" stroke="#000000" stroke-width="1" fill="none"></path></g><g transform="translate(799.188720703125 152.81063842773438) rotate(0 41 25)"><text x="0" y="18" font-family="Virgil, Segoe UI Emoji" font-size="20px" fill="#000000" text-anchor="start" style="white-space: pre;" direction="ltr">profiling</text><text x="0" y="43" font-family="Virgil, Segoe UI Emoji" font-size="20px" fill="#000000" text-anchor="start" style="white-space: pre;" direction="ltr">process </text></g><g stroke-linecap="round"><g transform="translate(518.49267578125 315.73126220703125) rotate(0 -84.11456269819291 -2.421284956857562)"><path d="M-0.19 -0.45 C-27.99 -1.24, -139.64 -3.9, -167.57 -4.39 M-1.76 -1.73 C-29.56 -2.37, -140.29 -2.37, -168.03 -2.98" stroke="#000000" stroke-width="1" fill="none"></path></g></g><g stroke-linecap="round"><g transform="translate(351.45858804158865 389.6983446757864) rotate(0 41.3836515358463 1.614053980466167)"><path d="M0 0 C13.79 0.54, 68.97 2.69, 82.77 3.23 M0 0 C13.79 0.54, 68.97 2.69, 82.77 3.23" stroke="#000000" stroke-width="1" fill="none"></path></g><g transform="translate(351.45858804158865 389.6983446757864) rotate(0 41.3836515358463 1.614053980466167)"><path d="M54.2 12.38 C62.37 9.76, 70.54 7.15, 82.77 3.23 M54.2 12.38 C65.27 8.83, 76.34 5.29, 82.77 3.23" stroke="#000000" stroke-width="1" fill="none"></path></g><g transform="translate(351.45858804158865 389.6983446757864) rotate(0 41.3836515358463 1.614053980466167)"><path d="M55 -8.12 C62.94 -4.88, 70.88 -1.63, 82.77 3.23 M55 -8.12 C65.76 -3.72, 76.52 0.68, 82.77 3.23" stroke="#000000" stroke-width="1" fill="none"></path></g></g><g stroke-linecap="round"><g transform="translate(349.9433491513133 312.35760325938463) rotate(0 0.6668516468628809 39.625314594432666)"><path d="M0 0 C0.22 13.21, 1.11 66.04, 1.33 79.25 M0 0 C0.22 13.21, 1.11 66.04, 1.33 79.25" stroke="#000000" stroke-width="1" fill="none"></path></g></g><g transform="translate(399.2269287109375 286.14459228515625) rotate(0 20 12.5)"><text x="0" y="18" font-family="Virgil, Segoe UI Emoji" font-size="20px" fill="#000000" text-anchor="start" style="white-space: pre;" direction="ltr">eval</text></g><g stroke-linecap="round" transform="translate(10 340.25238037109375) rotate(0 101.72329711914062 33.5101318359375)"><path d="M0 0 C81.05 0, 162.11 0, 203.45 0 M203.45 0 C203.45 22.75, 203.45 45.51, 203.45 67.02 M203.45 67.02 C155.76 67.02, 108.08 67.02, 0 67.02 M0 67.02 C0 46.82, 0 26.62, 0 0" stroke="#862e9c" stroke-width="1.5" fill="none" stroke-dasharray="8 9"></path></g><g stroke-linecap="round"><g transform="translate(216.89569091796886 372.3862195531905) rotate(0 67.5464477539062 -9.78206851682961)"><path d="M0 0 C22.52 -3.26, 112.58 -16.3, 135.09 -19.56" stroke="#862e9c" stroke-width="1.5" fill="none" stroke-dasharray="8 9"></path></g><g transform="translate(216.89569091796886 372.3862195531905) rotate(0 67.5464477539062 -9.78206851682961)"><path d="M108.66 -5.37 C117.18 -9.94, 125.7 -14.52, 135.09 -19.56" stroke="#862e9c" stroke-width="1.5" fill="none"></path></g><g transform="translate(216.89569091796886 372.3862195531905) rotate(0 67.5464477539062 -9.78206851682961)"><path d="M105.72 -25.68 C115.19 -23.71, 124.65 -21.74, 135.09 -19.56" stroke="#862e9c" stroke-width="1.5" fill="none"></path></g></g><g transform="translate(18.3282470703125 349.55059814453125) rotate(0 86 25)"><text x="0" y="18" font-family="Virgil, Segoe UI Emoji" font-size="20px" fill="#862e9c" text-anchor="start" style="white-space: pre;" direction="ltr">MyApp takes the</text><text x="0" y="43" font-family="Virgil, Segoe UI Emoji" font-size="20px" fill="#862e9c" text-anchor="start" style="white-space: pre;" direction="ltr">pid of the parent</text></g><g stroke-linecap="round"><g transform="translate(519.8475341796875 413.07806396484375) rotate(0 -0.26605224609375 31.530487060546875)"><path d="M0 0 C-0.09 10.51, -0.44 52.55, -0.53 63.06 M0 0 C-0.09 10.51, -0.44 52.55, -0.53 63.06" stroke="#000000" stroke-width="1" fill="none"></path></g></g><g stroke-linecap="round" transform="translate(440.65850830078125 515.4705810546875) rotate(270.71678697320937 78.3189697265625 38.48614501953125)"><path d="M0 0 C39.1 0, 78.2 0, 156.64 0 M0 0 C32.27 0, 64.53 0, 156.64 0 M156.64 0 C156.64 20.35, 156.64 40.7, 156.64 76.97 M156.64 0 C156.64 25.91, 156.64 51.82, 156.64 76.97 M156.64 76.97 C98.87 76.97, 41.11 76.97, 0 76.97 M156.64 76.97 C103.18 76.97, 49.72 76.97, 0 76.97 M0 76.97 C0 46.34, 0 15.71, 0 0 M0 76.97 C0 58.5, 0 40.03, 0 0" stroke="#000000" stroke-width="1" fill="none"></path></g><g transform="translate(445.5698318901045 527.4992690336155) rotate(270.71678697320937 74.5 25)"><text x="74.5" y="18" font-family="Virgil, Segoe UI Emoji" font-size="20px" fill="#000000" text-anchor="middle" style="white-space: pre;" direction="ltr">Some awesome </text><text x="74.5" y="43" font-family="Virgil, Segoe UI Emoji" font-size="20px" fill="#000000" text-anchor="middle" style="white-space: pre;" direction="ltr">things</text></g><g transform="translate(797.4241416632085 473.8974649274144) rotate(269.24297782159806 38 12.5)"><text x="38" y="18" font-family="Virgil, Segoe UI Emoji" font-size="20px" fill="#000000" text-anchor="middle" style="white-space: pre;" direction="ltr">Profiling</text></g><g stroke-linecap="round"><g transform="translate(519.648193359375 632.3449096679688) rotate(0 0 18.380615234375)"><path d="M0 0 C0 6.13, 0 30.63, 0 36.76 M0 0 C0 6.13, 0 30.63, 0 36.76" stroke="#000000" stroke-width="1" fill="none"></path></g></g></svg>